<!-- Generated by IcoMoon.io -->
<svg  xmlns="http://www.w3.org/2000/svg" viewBox="0 0 672 1024">
<title></title>
<g id="icomoon-ignore">
</g>
<path d="M579.906 14.16h-487.811c-48.905 0-88.693 37.222-88.693 82.973v829.733c0 45.753 39.788 82.974 88.693 82.974h487.811c48.906 0 88.692-37.221 88.692-82.974v-829.733c0-45.751-39.787-82.973-88.692-82.973zM579.906 976.652h-487.811c-29.342 0-53.216-22.332-53.216-49.786v-829.733c0-27.452 23.874-49.784 53.216-49.784h487.811c29.342 0 53.215 22.332 53.215 49.784v734.315h-507.766c-9.796 0-17.738 7.428-17.738 16.594 0 9.163 7.942 16.594 17.738 16.594h507.766v62.229c0 27.454-23.873 49.786-53.215 49.786zM375.911 916.496c0 9.163-7.943 16.594-17.737 16.594h-44.348c-9.794 0-17.737-7.431-17.737-16.594 0-9.166 7.943-16.594 17.737-16.594h44.348c9.794 0 17.737 7.428 17.737 16.594zM200.699 669.651h270.602c30.338 0 53.981-24.676 50.699-52.874l-23.724-203.856c-2.823-24.255-24.62-42.546-50.699-42.546h-16.42v-30.723c-0.003-49.086-42.69-89.018-95.157-89.018s-95.154 39.932-95.154 89.018v30.72h-16.422c-26.080 0-47.874 18.291-50.699 42.549l-23.723 203.856c-3.284 28.213 20.377 52.874 50.697 52.874zM185.269 620.369l23.723-203.856c0.86-7.384 7.492-12.949 15.43-12.949h16.422v25.893c0 9.163 7.942 16.594 17.738 16.594s17.738-7.431 17.738-16.594v-89.805c0-30.784 26.77-55.827 59.677-55.827 32.909 0 59.677 25.044 59.677 55.827v30.723h-76.728c-9.794 0-17.737 7.431-17.737 16.594 0 9.166 7.943 16.594 17.737 16.594h76.728v25.893c0 9.163 7.943 16.594 17.74 16.594 9.794 0 17.737-7.431 17.737-16.594v-25.893h16.423c7.937 0 14.568 5.568 15.429 12.949l23.724 203.856c0.996 8.579-6.147 16.091-15.432 16.091h-270.596c-9.242 0-16.43-7.478-15.43-16.091z"></path>
</svg>
